<?xml version="1.0" encoding="utf-8"?>
<!-- Generator: Adobe Illustrator 26.3.1, SVG Export Plug-In . SVG Version: 6.00 Build 0)  -->
<svg version="1.1" id="Camada_1" xmlns="http://www.w3.org/2000/svg" xmlns:xlink="http://www.w3.org/1999/xlink" x="0px" y="0px"
	 viewBox="0 0 800 800" style="enable-background:new 0 0 800 800;" xml:space="preserve">
<style type="text/css">
	.st0{fill:#666666;}
	.st1{fill:#B1B3B4;}
	.st2{fill:#F7931E;}
	.st3{opacity:0.1;fill:#FFFFFF;enable-background:new    ;}
	.st4{font-family:'Baloo2-Regular';}
	.st5{font-size:43.8429px;}
</style>
<g transform="translate(263.543 126.955)">
	<path class="st0" d="M226.5,357.1h-10.8c-3.6,0-6.7-0.5-9.8-1.5c-3.1-1-6.2-2.1-9.3-3.6c-3.1-1.5-5.7-3.6-7.7-5.7
		c-2.6-2.1-4.6-4.6-6.2-7.7l-53.1-86.1v76.9c0,3.6-0.5,7.7-2.1,11.3c-2.6,6.7-8.3,12.4-15,15c-3.6,1.5-7.2,2.1-11.3,2.1h-4.6V197.7
		h10.8c3.6,0,6.7,0.5,9.8,1.5c3.1,1,6.2,2.1,9.3,3.6c3.1,1.5,5.7,3.6,7.7,5.7c2.6,2.1,4.6,4.6,6.2,7.7l53.1,86.7v-76.9
		c0-3.6,0.5-7.7,2.1-10.8c1.5-3.6,3.6-6.7,6.2-9.3c2.6-2.6,5.7-4.6,9.3-6.2s7.2-2.1,11.3-2.1h4.1L226.5,357.1z"/>
	<path class="st0" d="M387.9,353.5l-6.2,2.6c-2.6,1-5.7,1.5-8.3,1.5c-2.6,0-5.7,0-8.3-1c-3.1-1-6.2-2.6-8.8-5.2
		c-2.6-2.6-4.1-5.2-5.7-8.3l-7.7-21.7h-56.7l-7.2,22.2c-2.1,6.2-6.7,10.8-12.9,12.9c-2.6,1-5.7,1.5-8.8,1.5s-6.2-0.5-9.3-1.5
		l-6.2-2.6l0,0l52.6-142.4c1.5-4.1,4.1-7.7,7.7-10.3c7.2-5.2,17-5.2,24.2,0c3.6,2.6,6.2,6.2,7.7,10.3L387.9,353.5L387.9,353.5z
		 M314.7,236.9l-19.1,58.3h38.7L314.7,236.9z"/>
	<path class="st0" d="M449.3,311.7l28.4-94.4c1-3.6,2.6-6.7,4.6-9.3c2.1-2.6,4.6-5.2,7.7-6.7s6.2-3.1,9.3-3.6c3.6-0.5,7.2-1,10.8,0
		l9.3,1l-50,143.9c-1.5,4.1-4.1,7.7-7.7,10.3c-3.6,2.6-7.7,4.1-12.4,4.1c-9.3,0-17-5.7-20.1-14.4l-50-143.9l8.3-1.5
		c3.6-0.5,7.2-0.5,10.8,0c3.6,0.5,6.7,2.1,9.8,3.6c3.1,1.5,5.7,4.1,7.7,6.7c2.1,2.6,3.6,6.2,5.2,9.3L449.3,311.7z"/>
</g>
<g>
	<path class="st1" d="M200.9,526.6c0,3.6-3.1,6.7-6.7,7.2v0.5l-3.6,12.9c2.1,1.5,3.1,3.6,3.1,6.2c0,3.6-3.1,7.2-6.7,7.7l-3.1,11.9
		c0,0.5-0.5,1-0.5,1.5c2.1,1.5,3.6,3.6,3.6,6.2c0,4.1-3.1,7.7-7.7,7.7l0,0h-0.5c-3.6,6.2-13.9,10.8-26.3,10.8
		c-6.7,0-13.4-1.5-19.1-4.6l0,0c-2.6-1.5-5.2-3.6-6.7-6.2h-0.5c-4.1,0-7.7-3.1-7.7-7.7l0,0c0-2.6,1-4.6,3.6-6.2c0-0.5-0.5-1-0.5-1.5
		l-3.1-11.9c-3.6-0.5-6.7-3.6-6.7-7.7c0-2.6,1-4.6,3.1-6.2l-3.6-12.9v-0.5c-3.6-0.5-6.7-3.6-6.7-7.2c0-4.1,3.1-7.7,7.7-7.7l0,0h82
		c1.5,0,3.6,0.5,5.2,1.5C199.8,522,200.9,524,200.9,526.6z"/>
	<path class="st2" d="M152.4,306.4c-11.3,0-20.6,9.3-20.6,20.6s9.3,20.6,20.6,20.6c11.3,0,20.6-9.3,20.6-20.6l0,0
		C172.5,315.6,163.7,306.4,152.4,306.4z"/>
	<path class="st3" d="M152.4,306.4c-11.3,0-20.6,9.3-20.6,20.6s9.3,20.6,20.6,20.6c11.3,0,20.6-9.3,20.6-20.6l0,0
		C172.5,315.6,163.7,306.4,152.4,306.4z"/>
	<path class="st3" d="M199.3,518.9l-1,1.5c-17,26.3-38.2,50-61.9,70.7c-1,1-2.1,2.1-3.6,3.1l0,0c-2.6-1.5-5.2-3.6-6.7-6.2h-0.5
		c-4.1,0-7.7-3.1-7.7-7.7l0,0c0-2.6,1-4.6,3.6-6.2c0-0.5-0.5-1-0.5-1.5l-3.1-11.9c-3.6-0.5-6.7-3.6-6.7-7.7c0-2.6,1-4.6,3.1-6.2
		l-3.6-12.9v-0.5c-3.6-0.5-6.7-3.6-6.7-7.2c0-4.1,3.1-7.7,7.7-7.7l0,0h87.7V518.9z"/>
	<path class="st3" d="M143.6,518.9c-0.5,25.3-4.1,50.6-10.8,75.3c-2.6-1.5-5.2-3.6-6.7-6.2h-0.5c-4.1,0-7.7-3.1-7.7-7.7l0,0
		c0-2.6,1-4.6,3.6-6.2c0-0.5-0.5-1-0.5-1.5l-3.1-11.9c-3.6-0.5-6.7-3.6-6.7-7.7c0-2.6,1-4.6,3.1-6.2l-3.6-12.9v-0.5
		c-3.6-0.5-6.7-3.6-6.7-7.2c0-4.1,3.1-7.7,7.7-7.7l0,0h32V518.9z"/>
	<path class="st2" d="M233.4,228.5c-23.7-17.5-52.1-26.8-81.5-26.8c-11.9,0-23.7,1.5-35.1,4.6c-5.7,1.5-10.8,3.1-16.5,5.7
		C53.8,231,21.3,273.9,15.7,323.9c-0.5,3.1-0.5,6.7-0.5,9.8v5.2c0,40.8,26.8,78.9,48,105.2c1,1.5,2.1,2.6,3.1,4.1
		c1,1.5,2.1,2.6,3.1,3.6c2.1,2.6,4.1,4.6,5.7,7.2c0.5,0.5,1.5,1.5,2.1,2.6c0,0.5,0.5,0.5,0.5,0.5c1.5,2.1,3.1,3.6,4.6,5.7l0,0l0,0
		c2.6,2.6,4.6,5.7,6.7,8.8l0,0l0,0c0,0.5,0.5,1,0.5,1.5c1,3.6,2.1,7.2,3.6,10.8l0,0l0,0c0.5,1,0.5,2.1,1,3.1c0,0.5,0.5,1.5,0.5,2.1
		c0.5,1,0.5,1.5,0.5,2.6v0.5v0.5v0.5c0,0.5,0.5,1.5,0.5,1.5c0,1,0.5,2.1,1.5,3.1c3.1,1,6.2,1.5,9.3,1.5c8.8,0,16.5-3.1,23.2-15.5
		c4.1-8.8,6.7-18.1,8.8-27.3l0,0c1.5-6.7,3.6-13.4,5.2-20.1H158c4.1,17.5,9.8,39.7,13.9,47.5c6.7,12.4,15,15.5,23.2,15.5
		c3.6,0,6.7-1,10.3-2.1l0,0c0.5-1,1-2.1,1-2.6c0,0,1-3.6,2.6-8.8c0-0.5,0.5-1.5,0.5-2.1c1-3.6,2.1-7.7,3.1-10.8
		c0.5-2.1,1.5-3.6,3.1-5.2c2.6-3.6,7.2-9.3,12.9-15.5c21.7-25.8,58.8-71.2,58.8-118.6C289.1,295,268.4,254.3,233.4,228.5z
		 M191.1,452.9c-2.1,0-2.6-25.8-20.6-33c-2.1,3.6-4.6,6.7-7.2,10.3h-22.7c-2.1-2.6-4.6-6.2-7.2-10.3l-2.1,1
		c-13.4,7.2-15.5,25.3-17.5,30.4l0,0c0,0,0,0.5-0.5,0.5l0,0l0,0c0,0,0,0.5-0.5,0.5c-2.1,0-9.8-35.6-9.8-51.1
		c0-6.2,7.2-14.4,13.9-21.1c-0.5-2.6-1-5.2-1.5-7.7l0,0c-0.5-2.1-0.5-4.1-1-6.2c0-0.5,0-1.5,0-2.1c0-1.5-0.5-3.1-0.5-5.2
		c0-2.1,0-4.6,0-7.2c0-48.5,32-88.2,38.2-88.2c6.2,0,38.2,39.7,38.2,88.2c0,9.3-1,18.6-3.6,27.9c6.7,6.7,13.9,15,13.9,21.1
		C200.9,417.8,193.1,452.9,191.1,452.9L191.1,452.9z"/>
	<path class="st3" d="M233.4,228.5c-23.7-17.5-52.1-26.8-81.5-26.8c-11.9,0-23.7,1.5-35.1,4.6c-5.7,1.5-10.8,3.1-16.5,5.7
		C53.8,231,21.3,273.9,15.7,323.9c-0.5,3.1-0.5,6.7-0.5,9.8v5.2c0,40.8,26.8,78.9,48,105.2c1,1.5,2.1,2.6,3.1,4.1
		c1,1.5,2.1,2.6,3.1,3.6c2.1,2.6,4.1,4.6,5.7,7.2c0.5,0.5,1.5,1.5,2.1,2.6c0,0.5,0.5,0.5,0.5,0.5c1.5,2.1,3.1,3.6,4.6,5.7l0,0l0,0
		c2.6,2.6,4.6,5.7,6.7,8.8l0,0l0,0c0,0.5,0.5,1,0.5,1.5c1,3.6,2.1,7.2,3.6,10.8l0,0l0,0c0.5,1,0.5,2.1,1,3.1c0,0.5,0.5,1.5,0.5,2.1
		c0.5,1,0.5,1.5,0.5,2.6v0.5v0.5v0.5c0,0.5,0.5,1.5,0.5,1.5c0,1,0.5,2.1,1.5,3.1c3.1,1,6.2,1.5,9.3,1.5c8.8,0,16.5-3.1,23.2-15.5
		c4.1-8.8,6.7-18.1,8.8-27.3l0,0c1.5-6.7,3.6-13.4,5.2-20.1H158c4.1,17.5,9.8,39.7,13.9,47.5c6.7,12.4,15,15.5,23.2,15.5
		c3.6,0,6.7-1,10.3-2.1l0,0c0.5-1,1-2.1,1-2.6c0,0,1-3.6,2.6-8.8c0-0.5,0.5-1.5,0.5-2.1c1-3.6,2.1-7.7,3.1-10.8
		c0.5-2.1,1.5-3.6,3.1-5.2c2.6-3.6,7.2-9.3,12.9-15.5C258.1,384.3,259.1,302.7,233.4,228.5z M191.1,452.9c-2.1,0-2.6-25.8-20.6-33
		c-2.1,3.6-4.6,6.7-7.2,10.3h-22.7c-2.1-2.6-4.6-6.2-7.2-10.3l-2.1,1c-13.4,7.2-15.5,25.3-17.5,30.4l0,0c0,0,0,0.5-0.5,0.5l0,0l0,0
		c0,0,0,0.5-0.5,0.5c-2.1,0-9.8-35.6-9.8-51.1c0-6.2,7.2-14.4,13.9-21.1c-0.5-2.6-1-5.2-1.5-7.7l0,0c-0.5-2.1-0.5-4.1-1-6.2
		c0-0.5,0-1.5,0-2.1c0-1.5-0.5-3.1-0.5-5.2c0-2.1,0-4.6,0-7.2c0-48.5,32-88.2,38.2-88.2c6.2,0,38.2,39.7,38.2,88.2
		c0,9.3-1,18.6-3.6,27.9c6.7,6.7,13.9,15,13.9,21.1C200.9,417.8,193.1,452.9,191.1,452.9L191.1,452.9z"/>
	<path class="st3" d="M131.7,421.4c-15.5,8.3-16,32-18.6,32c-2.1,0-9.8-35.6-9.8-51.1c0-6.2,7.2-14.4,13.9-21.1c0-0.5,0-1-0.5-1.5
		l0,0c-13.4-32-32-61.4-54.7-87.7c-8.3-9.3-16.5-18.1-25.8-26.8c-13.9,22.2-21.7,47.5-21.1,73.8c0,40.8,26.8,78.9,48,105.2
		c1,1.5,2.1,2.6,3.1,4.1c1,1.5,2.1,2.6,3.1,3.6c2.1,2.6,4.1,4.6,5.7,7.2c0.5,0.5,1.5,1.5,2.1,2.6c0,0.5,0.5,0.5,0.5,0.5
		c1.5,2.1,3.1,3.6,4.6,5.7l0,0l0,0c3.1,3.1,5.2,6.7,7.2,10.3c1,3.6,2.1,7.2,3.6,10.8l0,0c0.5,1,0.5,2.1,1,3.1c0,0.5,0.5,1.5,0.5,2.1
		c0.5,1,0.5,1.5,0.5,2.6v0.5v0.5v0.5c0,0.5,0.5,1.5,0.5,1.5c0,1,0.5,2.1,1.5,3.1c3.1,1,6.2,1.5,9.3,1.5c8.8,0,16.5-3.1,23.2-15.5
		c4.1-8.8,6.7-18.1,8.8-27.3l0,0C137.9,448.2,135.3,434.8,131.7,421.4z"/>
</g>
<text transform="matrix(1 0 0 1 357.0044 544.3965)" class="st0 st4 st5">nosso ambiente virtual</text>
</svg>
